<?xml version="1.0" standalone="no"?><!DOCTYPE svg PUBLIC "-//W3C//DTD SVG 1.1//EN" "http://www.w3.org/Graphics/SVG/1.1/DTD/svg11.dtd"><svg t="1721118547151" class="icon" viewBox="0 0 1024 1024" version="1.1" xmlns="http://www.w3.org/2000/svg" p-id="5856" xmlns:xlink="http://www.w3.org/1999/xlink" width="128" height="128"><path d="M658.474293 748.407729c-1.76408-47.107847-1.589478-94.29848 2.861361-141.263334a659.743166 659.743166 0 0 1 10.479114-70.077006c4.434282-21.673192 10.902072-42.705174 16.609742-64.04572 10.424927-38.970805 17.708529-79.967591 17.153114-120.421005-0.288996-21.110252-8.553979-45.301622-29.387277-54.412521-10.063682-4.401168-20.639128-2.780081-29.071187 4.14077-13.034922 10.694356-16.007667 30.802153-17.229879 46.45008-0.379307 4.842188 7.14964 4.804558 7.525936 0 1.473578-18.84645 11.01195-56.674818 37.826862-42.730762 25.661938 13.346496 23.678102 48.134385 22.063036 72.248991-2.861361 42.703669-13.990716 83.297066-25.080936 124.378143-11.889475 44.044791-18.035154 89.493922-20.762554 134.974661-2.20811 36.871068-1.893526 73.861047-0.511764 110.756198 0.180622 4.839177 7.706559 4.855734 7.524432 0.001505zM413.622463 429.166532c1.425412-46.042175-16.812942-89.343403-23.41921-134.337968-0.702922-4.789506-7.951905-2.745462-7.255003 1.998889 6.50542 44.321746 24.55111 86.996816 23.148276 132.339079-0.150519 4.857239 7.375418 4.842188 7.525937 0zM370.154158 487.057541c-15.069935-41.919467-28.56695-90.594214-17.392439-135.16281 2.957693-11.799163 11.903021-35.549514 25.816973-37.458091 4.792516-0.656262 2.742451-7.906749-1.998889-7.255003-5.86722 0.802265-11.203109 5.950005-14.934469 10.141952-7.614743 8.553979-12.381671 19.349183-15.519986 30.254265-13.229091 45.989493 1.177056 98.111119 16.772302 141.478576 1.630118 4.532119 8.903183 2.578386 7.256508-1.998889z" p-id="5857" fill="#707070"></path><path d="M390.33872 295.828009c-5.287723-46.251396-15.655453-91.822447-20.890495-138.132545-2.948662-26.090917-5.132689-52.588234-3.427311-78.847732 0.910638-14.004263 2.513663-37.379822 17.089897-44.645361 18.745603-9.344203 31.014385 11.567364 36.707003 26.07436 8.642786 22.038953 12.011395 46.254406 14.642462 69.646522 2.518178 22.404713 3.94058 44.111019 9.274964 66.171045 10.80875 44.687506 29.750027 86.98929 38.969299 132.117816 0.970846 4.753382 8.224343 2.736431 7.255003-1.998889-9.213252-45.111969-27.836934-87.523632-38.967794-132.117816-5.641442-22.604903-6.776353-45.163145-9.463113-68.160902-2.716863-23.237082-6.347375-46.988937-14.931458-68.872856-5.977099-15.237011-16.746714-33.437736-35.501348-32.493984-17.177198 0.865483-25.406057 15.215939-29.175045 30.231687-5.609833 22.341495-4.455354 46.56899-3.022416 69.337959 3.260236 51.844672 13.046964 102.983411 21.360113 154.174831 0.945258 5.822065 1.884495 11.65316 2.554303 17.515865 0.543373 4.763918 8.07533 4.816599 7.525936 0z" p-id="5858" fill="#707070"></path><path d="M487.879373 330.626434c27.975411 24.779899 32.715246-68.234656 33.446768-79.160811 1.222212-18.262438 1.587973-36.547453 2.385721-54.827953 0.657767-15.047358 1.717419-30.064611 2.229183-45.12401 0.493701-14.482912 1.592488-28.738541 4.685648-42.926437 2.486569-11.404804 6.032791-22.570284 9.753614-33.622874 1.554858-4.610389-5.715196-6.573153-7.255003-1.998889-5.429211 16.116041-10.230758 32.432271-12.568314 49.312947-1.961259 14.144245-2.081674 28.455566-2.605479 42.702164-0.76012 20.631602-1.989858 41.263205-2.847815 61.897818-0.967835 23.273206-2.254771 46.721014-6.138154 69.71576-0.873009 5.168813-5.633916 37.68387-15.766837 28.709943-3.616965-3.204544-8.958875 2.099736-5.319332 5.322342z" p-id="5859" fill="#707070"></path><path d="M540.002505 75.864451c5.46082-8.709014 6.722167-20.435928 9.676849-30.132345 3.279803-10.766605 8.553979-26.590639 22.008849-26.91877 26.975967-0.659272 27.76017 37.56797 27.772211 56.294006 0.025588 32.180905-2.674718 64.697466-4.756392 96.776018-1.559374 24.018274-6.422634 47.305027-9.661797 71.088491-3.148852 23.116667-4.934004 46.395894-7.70957 69.559221-1.663232 13.891374-3.854785 27.707488-6.810972 41.385126-1.023527 4.730804 6.231475 6.741734 7.255002 1.998888 10.096796-46.681879 11.165479-94.78315 19.648716-141.758541 6.87118-38.051135 6.680021-77.452423 8.767716-115.977692 1.243285-22.924003 3.37162-49.370144-7.500349-70.460829-4.54416-8.815882-12.913002-15.130143-22.860785-16.183774-11.788627-1.249305-20.070168 4.277742-26.009636 14.184886-4.66006 7.774292-7.184259 16.880676-9.580517 25.547544-1.869443 6.764312-2.954683 14.765888-6.735714 20.795668-2.587417 4.128729 3.927034 7.903739 6.496389 3.802103z" p-id="5860" fill="#707070"></path><path d="M579.9863 342.488815c3.633522-14.049418 8.529896-36.180187 24.379519-41.133758 24.101059-7.533462 28.115394 31.455404 25.655918 46.425997-0.781192 4.74435 6.4708 6.779364 7.255003 1.998889 3.478488-21.155408-1.411866-54.80086-28.113889-56.497206-23.304815-1.478094-31.968673 29.939681-36.433059 47.20719-1.216191 4.702205 6.043327 6.695073 7.256508 1.998888zM575.72361 72.00214c-0.272439 6.219434-5.800992 12.806134-10.53029 16.412563l5.14774 1.348647c-2.963714-5.192896-5.977099-10.40235-8.287561-15.927892-1.843854-4.410199-9.127456-2.477538-7.255003 1.998889 2.569355 6.14869 5.743795 11.946672 9.046176 17.726591 0.92268 1.619582 3.525149 2.587417 5.14774 1.348648 6.9931-5.332879 13.85826-13.746876 14.25864-22.910456 0.210726-4.851219-7.31521-4.830146-7.527442 0.00301zM398.206334 67.557322c0.468113 3.85629-2.716863 19.364235-8.773737 13.814609-5.125163-4.694679-6.94945-12.309422-11.413835-17.603165-3.13079-3.716307-8.429049 1.636139-5.320837 5.320837 5.445768 6.461769 8.07834 20.094251 18.1646 21.131324 10.635654 1.094271 15.86919-14.407653 14.869746-22.663605-0.576487-4.754887-8.108444-4.810579-7.525937 0z" p-id="5861" fill="#707070"></path><path d="M552.546736 462.492884c-0.809791-14.759867-1.32607-29.512208-4.161843-44.059843-3.010375-15.452253-10.215706-27.856502-19.794718-40.117757-7.799881-9.983907-22.472447-27.028649-37.160065-20.530755-10.277419 4.547171-14.114141 17.947853-16.399016 27.910688-1.297471 5.657999-2.104252 11.431898-2.751482 17.196765-0.212231 1.893526-0.388338 3.793072-0.555414 5.691113-0.260397 2.950167-0.945258 2.324009 0.770656 0.383823h5.320837c0.379307 0.471124 1.023527 2.141882 1.023527 2.138871h-7.525936c2.578386 23.95054 7.477771 47.48866 12.997292 70.91389 5.567688 23.632946 12.5352 47.320079 16.048307 71.372972 6.133638 41.972148 5.322342 85.861905 27.349254 123.63157 2.442919 4.188936 8.946833 0.40339 6.496388-3.797587-21.530199-36.92074-20.869422-80.711154-26.587628-121.832872-3.213575-23.10613-9.983907-45.953369-15.396561-68.615468-5.650473-23.658534-10.774131-47.461566-13.382621-71.670999-0.511764-4.74134-7.932337-4.875302-7.525936 0 0.109879 1.32908 0.317595 2.104252 1.181572 3.183471 1.229738 1.535291 4.068521 1.414876 5.320837 0 1.535291-1.735481 1.32306-4.465891 1.518734-6.648413 0.36275-4.076047 0.832369-8.137043 1.472073-12.179975 1.517229-9.60159 3.592882-21.542241 10.706397-28.746068 9.589548-9.708458 23.86324 7.495833 29.33008 13.93954 9.535362 11.233213 16.364396 23.085058 19.788698 37.479164 3.443869 14.472376 3.576325 29.576931 4.387621 44.359375 0.267923 4.824125 7.79386 4.848208 7.528947-0.001505zM575.368386 594.542967c15.104555 33.758341 28.086795 68.428826 37.697416 104.163477 9.568476 35.587144 16.853582 73.904697 15.327322 110.906717-1.365205 33.103585-20.839318 61.757835-33.457303 91.36487-12.762483 29.944196 2.792122 64.990978-10.147973 95.06161-1.898041 4.407188 4.583295 8.245416 6.496388 3.797587 5.974088-13.877827 6.705609-28.601569 6.600247-43.530017-0.124931-17.530917-2.468507-37.414441 4.595337-53.986553 12.708296-29.819266 30.449939-57.179056 33.281196-90.226948 1.551848-18.12396-0.845915-37.217261-3.294855-55.168126-2.64913-19.397349-6.541544-38.552363-11.428887-57.507186-9.628683-37.337676-23.437272-73.514853-39.170995-108.673019-1.979321-4.423746-8.463668-0.593044-6.497893 3.797588z" p-id="5862" fill="#707070"></path><path d="M515.404734 639.3253c-22.945075-14.525058-41.889363-36.670878-67.114797-47.404369-27.252921-11.595963-48.37371 6.794416-63.104978 28.563939-2.727399 4.032397 3.794577 7.79386 6.496388 3.797588 7.643341-11.29342 16.996575-23.06549 30.440908-27.474184 10.218717-3.350547 20.758038 0.3191 29.778626 5.203432 21.69878 11.747987 38.878988 30.629057 59.70476 43.809982 4.113677 2.605479 7.887182-3.908971 3.799093-6.496388z" p-id="5863" fill="#707070"></path><path d="M463.969473 743.06582c-38.510217-26.375397-73.730095-65.015061-73.031688-114.437886 0.069239-4.855734-7.458203-4.849714-7.525937 0-0.737542 52.202906 36.035689 93.046164 76.758532 120.935779 4.017345 2.749977 7.777303-3.77501 3.799093-6.497893z" p-id="5864" fill="#707070"></path><path d="M388.231458 660.062265c9.76415 9.318615 20.896515 14.496459 34.47782 11.85335 13.58281-2.641604 25.175763-13.688173 34.649412-23.012808 3.463436-3.409249-1.860412-8.727076-5.320837-5.320837-8.045226 7.91879-16.650382 15.796941-27.340222 19.912122-11.842814 4.560718-22.501045-0.507248-31.143831-8.752664-3.510097-3.347537-8.839965 1.965775-5.322342 5.320837z" p-id="5865" fill="#707070"></path><path d="M429.517241 666.390073c12.488539 12.411775 26.128547 23.324383 40.719832 33.160781 4.036912 2.722884 7.799881-3.800598 3.797587-6.496388-14.067481-9.48569-27.158095-20.023507-39.196582-31.98523-3.445374-3.424301-8.766211 1.895031-5.320837 5.320837zM508.964037 673.247706c9.413441 13.05449-8.417007 29.057641-17.473719 36.667868-10.703387 8.994999-27.201745 20.593973-41.919467 20.122849-4.857239-0.156539-4.842188 7.370902 0 7.525937 17.9614 0.573476 36.943317-13.373589 49.770524-24.486387 11.279874-9.774686 27.167126-28.311068 16.119051-43.62936-2.810185-3.895425-9.342698-0.146003-6.496389 3.799093zM508.860179 402.366672c-0.632179 16.891212 5.66703 33.163792 21.102726 41.430281 4.277742 2.290895 8.07834-4.205493 3.797588-6.496389-13.200493-7.07137-17.910224-20.596983-17.374377-34.933892 0.182128-4.854229-7.345314-4.837672-7.525937 0zM410.232781 614.29855c2.969735 5.54511-7.601196 10.515239-11.197089 12.350062-4.324403 2.205099-0.514774 8.696972 3.797588 6.496389 8.207786-4.184421 19.541847-12.109232 13.895889-22.645543-2.2924-4.277742-8.790294-0.477144-6.496388 3.799092zM544.355506 461.728249c9.299047 47.282449 15.650938 95.364152 33.373013 140.488163 1.752038 4.465891 9.032629 2.522694 7.255003-1.998889-17.71756-45.12401-24.072461-93.207219-33.373013-140.488163-0.933216-4.759402-8.188219-2.740946-7.255003 1.998889zM397.223447 595.372325c-3.806619-15.289693-14.246598-27.176157-31.062551-25.080936-14.941994 1.861917-28.237314 12.667656-36.28254 24.919881-12.57885 19.152003-11.221171 45.032194-5.50447 66.151477 6.559606 24.233516 20.297451 46.398904 35.846036 65.845924 3.031447 3.791567 8.31917-1.571416 5.320837-5.320837-24.521006-30.671202-47.348677-73.493781-33.678566-113.458009 4.515562-13.201998 15.572668-24.153741 28.589528-29.044094 15.337859-5.760352 25.824499 3.168419 29.515218 17.985483 1.172541 4.708226 8.430554 2.710842 7.256508-1.998889z" p-id="5866" fill="#707070"></path><path d="M344.165594 606.448999c1.834823 8.099413 5.903345 15.501924 11.60951 21.522673 1.413371 1.491641 3.89693 1.416381 5.320837 0 5.361477-5.328363 10.759079-10.813266 14.357982-17.529412 2.290895-4.276237-4.205493-8.076835-6.496389-3.797587-3.306897 6.174278-8.257458 11.112798-13.18243 16.007667h5.320837c-4.848208-5.116132-8.11898-11.332555-9.675344-18.200725-1.070188-4.733814-8.326696-2.727399-7.255003 1.997384zM356.196556 722.501951c1.503682 4.362033 3.830702 7.578618 7.057824 10.820791 3.425806 3.442363 8.748149-1.878474 5.320837-5.320837-2.385722-2.397763-3.994767-4.231082-5.123658-7.498843-0.666798-1.937176-2.554303-3.198523-4.626946-2.628057-1.882989 0.516279-3.299371 2.688265-2.628057 4.626946zM336.41689 693.468393c6.70862 24.527027 10.656726 49.58087 14.100595 74.741581 3.341516 24.400591 6.220939 48.307482 14.187895 71.728196 15.333343 45.07735 41.625955 85.435937 58.318483 129.954862 1.687315 4.50051 8.96339 2.552798 7.255002-1.998889-16.399016-43.743754-41.633481-83.557463-57.468051-127.533016-8.358305-23.211494-11.36868-47.040114-14.657514-71.356414-3.528159-26.093927-7.522926-52.102059-14.481407-77.535209-1.277904-4.678122-8.538928-2.68977-7.255003 1.998889z" p-id="5867" fill="#707070"></path></svg>